<svg width="1600" height="1034" viewBox="0 0 1600 1034" fill="none" xmlns="http://www.w3.org/2000/svg">
<rect width="1600" height="1034" fill="#F8F9FC"/>
<path d="M1198.55 658.466C1199.13 658.742 1199.58 659.138 1199.92 659.654C1200.27 660.17 1200.44 660.764 1200.44 661.436C1200.44 662.444 1200.09 663.29 1199.38 663.974C1198.67 664.658 1197.81 665 1196.79 665H1191.35V652.4H1196.39C1197.37 652.4 1198.21 652.73 1198.89 653.39C1199.58 654.05 1199.92 654.866 1199.92 655.838C1199.92 656.954 1199.46 657.83 1198.55 658.466ZM1196.39 653.966H1193.02V657.818H1196.39C1196.92 657.818 1197.36 657.632 1197.72 657.26C1198.08 656.888 1198.26 656.432 1198.26 655.892C1198.26 655.364 1198.08 654.914 1197.7 654.542C1197.34 654.158 1196.91 653.966 1196.39 653.966ZM1196.79 663.434C1197.35 663.434 1197.82 663.236 1198.21 662.84C1198.59 662.444 1198.78 661.958 1198.78 661.382C1198.78 660.818 1198.59 660.338 1198.19 659.942C1197.81 659.546 1197.34 659.348 1196.79 659.348H1193.02V663.434H1196.79ZM1209.91 663.866C1208.99 664.778 1207.86 665.234 1206.54 665.234C1205.22 665.234 1204.1 664.778 1203.18 663.866C1202.27 662.954 1201.81 661.832 1201.81 660.5C1201.81 659.168 1202.27 658.046 1203.18 657.134C1204.1 656.222 1205.22 655.766 1206.54 655.766C1207.86 655.766 1208.99 656.222 1209.91 657.134C1210.83 658.046 1211.3 659.168 1211.3 660.5C1211.3 661.832 1210.83 662.954 1209.91 663.866ZM1206.54 663.704C1207.44 663.704 1208.2 663.398 1208.81 662.786C1209.42 662.174 1209.73 661.412 1209.73 660.5C1209.73 659.588 1209.42 658.826 1208.81 658.214C1208.2 657.602 1207.44 657.296 1206.54 657.296C1205.66 657.296 1204.91 657.602 1204.29 658.214C1203.68 658.826 1203.38 659.588 1203.38 660.5C1203.38 661.412 1203.68 662.174 1204.29 662.786C1204.91 663.398 1205.66 663.704 1206.54 663.704ZM1220.74 663.866C1219.82 664.778 1218.69 665.234 1217.37 665.234C1216.05 665.234 1214.93 664.778 1214.01 663.866C1213.1 662.954 1212.64 661.832 1212.64 660.5C1212.64 659.168 1213.1 658.046 1214.01 657.134C1214.93 656.222 1216.05 655.766 1217.37 655.766C1218.69 655.766 1219.82 656.222 1220.74 657.134C1221.66 658.046 1222.13 659.168 1222.13 660.5C1222.13 661.832 1221.66 662.954 1220.74 663.866ZM1217.37 663.704C1218.27 663.704 1219.03 663.398 1219.64 662.786C1220.25 662.174 1220.56 661.412 1220.56 660.5C1220.56 659.588 1220.25 658.826 1219.64 658.214C1219.03 657.602 1218.27 657.296 1217.37 657.296C1216.49 657.296 1215.74 657.602 1215.12 658.214C1214.51 658.826 1214.21 659.588 1214.21 660.5C1214.21 661.412 1214.51 662.174 1215.12 662.786C1215.74 663.398 1216.49 663.704 1217.37 663.704ZM1231.59 665H1229.64L1225.54 660.734V665H1223.97V652.4H1225.54V659.978L1229.43 656H1231.44L1227.14 660.356L1231.59 665ZM1246 665L1244.98 662.174H1239.31L1238.28 665H1236.5L1241.2 652.4H1243.09L1247.78 665H1246ZM1239.88 660.608H1244.4L1242.13 654.398L1239.88 660.608ZM1261.02 653.984H1255.44V658.07H1260.79V659.654H1255.44V665H1253.77V652.4H1261.02V653.984ZM1264.46 657.512C1264.97 656.396 1265.91 655.838 1267.26 655.838V657.476C1266.5 657.44 1265.84 657.644 1265.28 658.088C1264.73 658.532 1264.46 659.246 1264.46 660.23V665H1262.89V656H1264.46V657.512ZM1269.4 661.22C1269.56 662.024 1269.92 662.648 1270.5 663.092C1271.09 663.536 1271.81 663.758 1272.66 663.758C1273.85 663.758 1274.71 663.32 1275.25 662.444L1276.58 663.2C1275.71 664.556 1274.39 665.234 1272.62 665.234C1271.2 665.234 1270.03 664.79 1269.13 663.902C1268.24 663.002 1267.8 661.868 1267.8 660.5C1267.8 659.144 1268.24 658.016 1269.11 657.116C1269.99 656.216 1271.12 655.766 1272.52 655.766C1273.84 655.766 1274.91 656.234 1275.74 657.17C1276.58 658.094 1277 659.21 1277 660.518C1277 660.746 1276.98 660.98 1276.94 661.22H1269.4ZM1272.52 657.242C1271.68 657.242 1270.98 657.482 1270.43 657.962C1269.88 658.43 1269.53 659.06 1269.4 659.852H1275.41C1275.28 659 1274.95 658.352 1274.41 657.908C1273.87 657.464 1273.24 657.242 1272.52 657.242ZM1279.88 661.22C1280.03 662.024 1280.4 662.648 1280.98 663.092C1281.56 663.536 1282.28 663.758 1283.14 663.758C1284.32 663.758 1285.19 663.32 1285.73 662.444L1287.06 663.2C1286.18 664.556 1284.86 665.234 1283.1 665.234C1281.67 665.234 1280.51 664.79 1279.61 663.902C1278.72 663.002 1278.28 661.868 1278.28 660.5C1278.28 659.144 1278.71 658.016 1279.59 657.116C1280.47 656.216 1281.6 655.766 1282.99 655.766C1284.31 655.766 1285.39 656.234 1286.21 657.17C1287.05 658.094 1287.47 659.21 1287.47 660.518C1287.47 660.746 1287.46 660.98 1287.42 661.22H1279.88ZM1282.99 657.242C1282.15 657.242 1281.46 657.482 1280.9 657.962C1280.35 658.43 1280.01 659.06 1279.88 659.852H1285.89C1285.76 659 1285.42 658.352 1284.88 657.908C1284.34 657.464 1283.71 657.242 1282.99 657.242ZM1299.86 665.234C1297.95 665.234 1296.37 664.604 1295.12 663.344C1293.89 662.084 1293.27 660.536 1293.27 658.7C1293.27 656.864 1293.89 655.316 1295.12 654.056C1296.37 652.796 1297.95 652.166 1299.86 652.166C1301.01 652.166 1302.07 652.442 1303.03 652.994C1304 653.546 1304.75 654.29 1305.29 655.226L1303.84 656.072C1303.48 655.376 1302.94 654.824 1302.22 654.416C1301.51 653.996 1300.72 653.786 1299.86 653.786C1298.41 653.786 1297.22 654.254 1296.29 655.19C1295.38 656.126 1294.93 657.296 1294.93 658.7C1294.93 660.092 1295.38 661.256 1296.29 662.192C1297.22 663.128 1298.41 663.596 1299.86 663.596C1300.72 663.596 1301.51 663.392 1302.22 662.984C1302.94 662.564 1303.48 662.012 1303.84 661.328L1305.29 662.156C1304.77 663.092 1304.02 663.842 1303.04 664.406C1302.07 664.958 1301.01 665.234 1299.86 665.234ZM1307.08 665V651.86H1308.65V665H1307.08ZM1318.49 656H1320.05V665H1318.49V663.452C1317.71 664.64 1316.57 665.234 1315.09 665.234C1313.83 665.234 1312.75 664.778 1311.86 663.866C1310.98 662.942 1310.53 661.82 1310.53 660.5C1310.53 659.18 1310.98 658.064 1311.86 657.152C1312.75 656.228 1313.83 655.766 1315.09 655.766C1316.57 655.766 1317.71 656.36 1318.49 657.548V656ZM1315.28 663.722C1316.2 663.722 1316.96 663.416 1317.57 662.804C1318.18 662.18 1318.49 661.412 1318.49 660.5C1318.49 659.588 1318.18 658.826 1317.57 658.214C1316.96 657.59 1316.2 657.278 1315.28 657.278C1314.38 657.278 1313.63 657.59 1313.02 658.214C1312.4 658.826 1312.1 659.588 1312.1 660.5C1312.1 661.412 1312.4 662.18 1313.02 662.804C1313.63 663.416 1314.38 663.722 1315.28 663.722ZM1323.76 658.43C1323.76 658.778 1323.93 659.06 1324.28 659.276C1324.63 659.48 1325.05 659.648 1325.54 659.78C1326.03 659.9 1326.52 660.044 1327.02 660.212C1327.51 660.368 1327.93 660.644 1328.28 661.04C1328.62 661.424 1328.8 661.922 1328.8 662.534C1328.8 663.35 1328.48 664.004 1327.84 664.496C1327.22 664.988 1326.42 665.234 1325.43 665.234C1324.56 665.234 1323.81 665.042 1323.18 664.658C1322.56 664.274 1322.11 663.764 1321.85 663.128L1323.2 662.354C1323.34 662.786 1323.61 663.128 1324.01 663.38C1324.41 663.632 1324.88 663.758 1325.43 663.758C1325.95 663.758 1326.37 663.662 1326.71 663.47C1327.05 663.266 1327.21 662.954 1327.21 662.534C1327.21 662.186 1327.04 661.91 1326.69 661.706C1326.34 661.49 1325.92 661.322 1325.43 661.202C1324.94 661.07 1324.45 660.92 1323.96 660.752C1323.46 660.584 1323.04 660.308 1322.7 659.924C1322.35 659.54 1322.17 659.048 1322.17 658.448C1322.17 657.668 1322.47 657.026 1323.07 656.522C1323.69 656.018 1324.45 655.766 1325.36 655.766C1326.09 655.766 1326.74 655.934 1327.3 656.27C1327.88 656.594 1328.31 657.05 1328.6 657.638L1327.29 658.376C1326.96 657.608 1326.32 657.224 1325.36 657.224C1324.92 657.224 1324.54 657.332 1324.23 657.548C1323.91 657.752 1323.76 658.046 1323.76 658.43ZM1331.44 658.43C1331.44 658.778 1331.61 659.06 1331.96 659.276C1332.31 659.48 1332.73 659.648 1333.22 659.78C1333.71 659.9 1334.21 660.044 1334.7 660.212C1335.19 660.368 1335.61 660.644 1335.96 661.04C1336.31 661.424 1336.48 661.922 1336.48 662.534C1336.48 663.35 1336.16 664.004 1335.53 664.496C1334.9 664.988 1334.1 665.234 1333.11 665.234C1332.24 665.234 1331.49 665.042 1330.86 664.658C1330.24 664.274 1329.8 663.764 1329.53 663.128L1330.88 662.354C1331.03 662.786 1331.3 663.128 1331.69 663.38C1332.09 663.632 1332.56 663.758 1333.11 663.758C1333.63 663.758 1334.06 663.662 1334.39 663.47C1334.73 663.266 1334.9 662.954 1334.9 662.534C1334.9 662.186 1334.72 661.91 1334.37 661.706C1334.03 661.49 1333.61 661.322 1333.11 661.202C1332.62 661.07 1332.13 660.92 1331.64 660.752C1331.15 660.584 1330.73 660.308 1330.38 659.924C1330.03 659.54 1329.86 659.048 1329.86 658.448C1329.86 657.668 1330.16 657.026 1330.76 656.522C1331.37 656.018 1332.13 655.766 1333.04 655.766C1333.77 655.766 1334.42 655.934 1334.99 656.27C1335.56 656.594 1335.99 657.05 1336.28 657.638L1334.97 658.376C1334.64 657.608 1334 657.224 1333.04 657.224C1332.6 657.224 1332.22 657.332 1331.91 657.548C1331.6 657.752 1331.44 658.046 1331.44 658.43ZM1347.73 657.512H1345.34V662.39C1345.34 662.834 1345.42 663.152 1345.59 663.344C1345.77 663.524 1346.04 663.62 1346.4 663.632C1346.76 663.632 1347.2 663.62 1347.73 663.596V665C1346.36 665.18 1345.36 665.072 1344.72 664.676C1344.09 664.268 1343.77 663.506 1343.77 662.39V657.512H1341.99V656H1343.77V653.948L1345.34 653.48V656H1347.73V657.512ZM1356.72 663.866C1355.8 664.778 1354.68 665.234 1353.36 665.234C1352.04 665.234 1350.92 664.778 1349.99 663.866C1349.08 662.954 1348.62 661.832 1348.62 660.5C1348.62 659.168 1349.08 658.046 1349.99 657.134C1350.92 656.222 1352.04 655.766 1353.36 655.766C1354.68 655.766 1355.8 656.222 1356.72 657.134C1357.65 658.046 1358.11 659.168 1358.11 660.5C1358.11 661.832 1357.65 662.954 1356.72 663.866ZM1353.36 663.704C1354.26 663.704 1355.01 663.398 1355.63 662.786C1356.24 662.174 1356.54 661.412 1356.54 660.5C1356.54 659.588 1356.24 658.826 1355.63 658.214C1355.01 657.602 1354.26 657.296 1353.36 657.296C1352.47 657.296 1351.72 657.602 1351.11 658.214C1350.5 658.826 1350.19 659.588 1350.19 660.5C1350.19 661.412 1350.5 662.174 1351.11 662.786C1351.72 663.398 1352.47 663.704 1353.36 663.704ZM1195.42 693.234C1194.24 693.234 1193.23 692.958 1192.39 692.406C1191.57 691.854 1190.98 691.098 1190.65 690.138L1192.09 689.31C1192.58 690.834 1193.7 691.596 1195.45 691.596C1196.32 691.596 1196.98 691.422 1197.43 691.074C1197.89 690.714 1198.12 690.24 1198.12 689.652C1198.12 689.052 1197.89 688.602 1197.43 688.302C1196.98 688.002 1196.22 687.684 1195.15 687.348C1194.62 687.18 1194.22 687.048 1193.94 686.952C1193.67 686.844 1193.32 686.688 1192.9 686.484C1192.49 686.268 1192.18 686.052 1191.98 685.836C1191.78 685.608 1191.59 685.314 1191.42 684.954C1191.27 684.594 1191.19 684.186 1191.19 683.73C1191.19 682.638 1191.57 681.774 1192.34 681.138C1193.11 680.49 1194.04 680.166 1195.15 680.166C1196.14 680.166 1197.01 680.418 1197.74 680.922C1198.48 681.426 1199.04 682.092 1199.41 682.92L1198.01 683.73C1197.47 682.434 1196.52 681.786 1195.15 681.786C1194.46 681.786 1193.91 681.954 1193.49 682.29C1193.07 682.626 1192.86 683.082 1192.86 683.658C1192.86 684.21 1193.06 684.63 1193.46 684.918C1193.85 685.206 1194.54 685.506 1195.51 685.818C1195.86 685.926 1196.1 686.004 1196.25 686.052C1196.39 686.1 1196.61 686.184 1196.91 686.304C1197.22 686.424 1197.45 686.52 1197.6 686.592C1197.74 686.664 1197.93 686.766 1198.17 686.898C1198.42 687.03 1198.61 687.156 1198.73 687.276C1198.85 687.396 1198.99 687.546 1199.14 687.726C1199.31 687.894 1199.43 688.068 1199.5 688.248C1199.58 688.428 1199.64 688.638 1199.68 688.878C1199.74 689.106 1199.77 689.352 1199.77 689.616C1199.77 690.72 1199.37 691.602 1198.57 692.262C1197.76 692.91 1196.71 693.234 1195.42 693.234ZM1206.23 685.512H1203.83V690.39C1203.83 690.834 1203.92 691.152 1204.08 691.344C1204.26 691.524 1204.53 691.62 1204.89 691.632C1205.25 691.632 1205.7 691.62 1206.23 691.596V693C1204.86 693.18 1203.86 693.072 1203.22 692.676C1202.58 692.268 1202.27 691.506 1202.27 690.39V685.512H1200.48V684H1202.27V681.948L1203.83 681.48V684H1206.23V685.512ZM1215.08 684H1216.64V693H1215.08V691.452C1214.3 692.64 1213.16 693.234 1211.67 693.234C1210.41 693.234 1209.34 692.778 1208.45 691.866C1207.56 690.942 1207.12 689.82 1207.12 688.5C1207.12 687.18 1207.56 686.064 1208.45 685.152C1209.34 684.228 1210.41 683.766 1211.67 683.766C1213.16 683.766 1214.3 684.36 1215.08 685.548V684ZM1211.87 691.722C1212.78 691.722 1213.55 691.416 1214.16 690.804C1214.77 690.18 1215.08 689.412 1215.08 688.5C1215.08 687.588 1214.77 686.826 1214.16 686.214C1213.55 685.59 1212.78 685.278 1211.87 685.278C1210.97 685.278 1210.22 685.59 1209.6 686.214C1208.99 686.826 1208.69 687.588 1208.69 688.5C1208.69 689.412 1208.99 690.18 1209.6 690.804C1210.22 691.416 1210.97 691.722 1211.87 691.722ZM1220.58 685.512C1221.1 684.396 1222.03 683.838 1223.39 683.838V685.476C1222.62 685.44 1221.96 685.644 1221.41 686.088C1220.86 686.532 1220.58 687.246 1220.58 688.23V693H1219.01V684H1220.58V685.512ZM1230.03 685.512H1227.63V690.39C1227.63 690.834 1227.72 691.152 1227.89 691.344C1228.07 691.524 1228.34 691.62 1228.7 691.632C1229.06 691.632 1229.5 691.62 1230.03 691.596V693C1228.66 693.18 1227.66 693.072 1227.02 692.676C1226.39 692.268 1226.07 691.506 1226.07 690.39V685.512H1224.29V684H1226.07V681.948L1227.63 681.48V684H1230.03V685.512ZM1245.97 680.4L1241.51 687.906V693H1239.84V687.888L1235.39 680.4H1237.26L1240.68 686.304L1244.1 680.4H1245.97ZM1253.1 691.866C1252.18 692.778 1251.05 693.234 1249.73 693.234C1248.41 693.234 1247.29 692.778 1246.37 691.866C1245.46 690.954 1245 689.832 1245 688.5C1245 687.168 1245.46 686.046 1246.37 685.134C1247.29 684.222 1248.41 683.766 1249.73 683.766C1251.05 683.766 1252.18 684.222 1253.1 685.134C1254.02 686.046 1254.49 687.168 1254.49 688.5C1254.49 689.832 1254.02 690.954 1253.1 691.866ZM1249.73 691.704C1250.63 691.704 1251.39 691.398 1252 690.786C1252.61 690.174 1252.92 689.412 1252.92 688.5C1252.92 687.588 1252.61 686.826 1252 686.214C1251.39 685.602 1250.63 685.296 1249.73 685.296C1248.85 685.296 1248.1 685.602 1247.48 686.214C1246.87 686.826 1246.57 687.588 1246.57 688.5C1246.57 689.412 1246.87 690.174 1247.48 690.786C1248.1 691.398 1248.85 691.704 1249.73 691.704ZM1262.54 684H1264.11V693H1262.54V691.704C1261.91 692.724 1260.93 693.234 1259.63 693.234C1258.57 693.234 1257.72 692.904 1257.09 692.244C1256.45 691.572 1256.13 690.666 1256.13 689.526V684H1257.7V689.436C1257.7 690.168 1257.9 690.738 1258.29 691.146C1258.69 691.542 1259.24 691.74 1259.93 691.74C1260.71 691.74 1261.34 691.5 1261.82 691.02C1262.3 690.528 1262.54 689.778 1262.54 688.77V684ZM1268.06 685.512C1268.57 684.396 1269.51 683.838 1270.87 683.838V685.476C1270.1 685.44 1269.44 685.644 1268.89 686.088C1268.33 686.532 1268.06 687.246 1268.06 688.23V693H1266.49V684H1268.06V685.512ZM1286.22 693H1284.17L1278.73 686.952V693H1277.06V680.4H1278.73V686.088L1283.99 680.4H1286.04L1280.48 686.52L1286.22 693ZM1288.34 682.362C1288.04 682.362 1287.79 682.26 1287.59 682.056C1287.38 681.852 1287.28 681.606 1287.28 681.318C1287.28 681.03 1287.38 680.784 1287.59 680.58C1287.79 680.364 1288.04 680.256 1288.34 680.256C1288.63 680.256 1288.88 680.364 1289.08 680.58C1289.29 680.784 1289.39 681.03 1289.39 681.318C1289.39 681.606 1289.29 681.852 1289.08 682.056C1288.88 682.26 1288.63 682.362 1288.34 682.362ZM1287.55 693V684H1289.12V693H1287.55ZM1298.96 680.4H1300.52V693H1298.96V691.452C1298.18 692.64 1297.04 693.234 1295.56 693.234C1294.3 693.234 1293.22 692.778 1292.33 691.866C1291.45 690.942 1291 689.82 1291 688.5C1291 687.18 1291.45 686.064 1292.33 685.152C1293.22 684.228 1294.3 683.766 1295.56 683.766C1297.04 683.766 1298.18 684.36 1298.96 685.548V680.4ZM1295.75 691.722C1296.67 691.722 1297.43 691.416 1298.04 690.804C1298.65 690.18 1298.96 689.412 1298.96 688.5C1298.96 687.588 1298.65 686.826 1298.04 686.214C1297.43 685.59 1296.67 685.278 1295.75 685.278C1294.85 685.278 1294.1 685.59 1293.49 686.214C1292.87 686.826 1292.57 687.588 1292.57 688.5C1292.57 689.412 1292.87 690.18 1293.49 690.804C1294.1 691.416 1294.85 691.722 1295.75 691.722ZM1305.24 680.382L1304.07 684.756H1302.72L1303.44 680.382H1305.24ZM1307.36 686.43C1307.36 686.778 1307.53 687.06 1307.88 687.276C1308.23 687.48 1308.65 687.648 1309.14 687.78C1309.63 687.9 1310.12 688.044 1310.62 688.212C1311.11 688.368 1311.53 688.644 1311.88 689.04C1312.22 689.424 1312.4 689.922 1312.4 690.534C1312.4 691.35 1312.08 692.004 1311.44 692.496C1310.82 692.988 1310.02 693.234 1309.03 693.234C1308.16 693.234 1307.41 693.042 1306.78 692.658C1306.16 692.274 1305.71 691.764 1305.45 691.128L1306.8 690.354C1306.94 690.786 1307.21 691.128 1307.61 691.38C1308.01 691.632 1308.48 691.758 1309.03 691.758C1309.55 691.758 1309.97 691.662 1310.31 691.47C1310.65 691.266 1310.81 690.954 1310.81 690.534C1310.81 690.186 1310.64 689.91 1310.29 689.706C1309.94 689.49 1309.52 689.322 1309.03 689.202C1308.54 689.07 1308.05 688.92 1307.56 688.752C1307.06 688.584 1306.64 688.308 1306.3 687.924C1305.95 687.54 1305.77 687.048 1305.77 686.448C1305.77 685.668 1306.07 685.026 1306.67 684.522C1307.29 684.018 1308.05 683.766 1308.96 683.766C1309.69 683.766 1310.34 683.934 1310.9 684.27C1311.48 684.594 1311.91 685.05 1312.2 685.638L1310.89 686.376C1310.56 685.608 1309.92 685.224 1308.96 685.224C1308.52 685.224 1308.14 685.332 1307.83 685.548C1307.51 685.752 1307.36 686.046 1307.36 686.43ZM1324.84 693.234C1322.93 693.234 1321.35 692.604 1320.1 691.344C1318.87 690.084 1318.25 688.536 1318.25 686.7C1318.25 684.864 1318.87 683.316 1320.1 682.056C1321.35 680.796 1322.93 680.166 1324.84 680.166C1325.99 680.166 1327.04 680.442 1328 680.994C1328.98 681.546 1329.73 682.29 1330.27 683.226L1328.81 684.072C1328.45 683.376 1327.91 682.824 1327.19 682.416C1326.49 681.996 1325.7 681.786 1324.84 681.786C1323.38 681.786 1322.2 682.254 1321.27 683.19C1320.36 684.126 1319.9 685.296 1319.9 686.7C1319.9 688.092 1320.36 689.256 1321.27 690.192C1322.2 691.128 1323.38 691.596 1324.84 691.596C1325.7 691.596 1326.49 691.392 1327.19 690.984C1327.91 690.564 1328.45 690.012 1328.81 689.328L1330.27 690.156C1329.74 691.092 1328.99 691.842 1328.02 692.406C1327.05 692.958 1325.99 693.234 1324.84 693.234ZM1339.57 691.866C1338.64 692.778 1337.52 693.234 1336.2 693.234C1334.88 693.234 1333.76 692.778 1332.84 691.866C1331.92 690.954 1331.47 689.832 1331.47 688.5C1331.47 687.168 1331.92 686.046 1332.84 685.134C1333.76 684.222 1334.88 683.766 1336.2 683.766C1337.52 683.766 1338.64 684.222 1339.57 685.134C1340.49 686.046 1340.95 687.168 1340.95 688.5C1340.95 689.832 1340.49 690.954 1339.57 691.866ZM1336.2 691.704C1337.1 691.704 1337.86 691.398 1338.47 690.786C1339.08 690.174 1339.39 689.412 1339.39 688.5C1339.39 687.588 1339.08 686.826 1338.47 686.214C1337.86 685.602 1337.1 685.296 1336.2 685.296C1335.31 685.296 1334.56 685.602 1333.95 686.214C1333.34 686.826 1333.03 687.588 1333.03 688.5C1333.03 689.412 1333.34 690.174 1333.95 690.786C1334.56 691.398 1335.31 691.704 1336.2 691.704ZM1350.25 680.4H1351.82V693H1350.25V691.452C1349.47 692.64 1348.34 693.234 1346.85 693.234C1345.59 693.234 1344.52 692.778 1343.63 691.866C1342.74 690.942 1342.3 689.82 1342.3 688.5C1342.3 687.18 1342.74 686.064 1343.63 685.152C1344.52 684.228 1345.59 683.766 1346.85 683.766C1348.34 683.766 1349.47 684.36 1350.25 685.548V680.4ZM1347.05 691.722C1347.96 691.722 1348.72 691.416 1349.33 690.804C1349.95 690.18 1350.25 689.412 1350.25 688.5C1350.25 687.588 1349.95 686.826 1349.33 686.214C1348.72 685.59 1347.96 685.278 1347.05 685.278C1346.15 685.278 1345.39 685.59 1344.78 686.214C1344.17 686.826 1343.86 687.588 1343.86 688.5C1343.86 689.412 1344.17 690.18 1344.78 690.804C1345.39 691.416 1346.15 691.722 1347.05 691.722ZM1354.98 682.362C1354.68 682.362 1354.43 682.26 1354.23 682.056C1354.02 681.852 1353.92 681.606 1353.92 681.318C1353.92 681.03 1354.02 680.784 1354.23 680.58C1354.43 680.364 1354.68 680.256 1354.98 680.256C1355.27 680.256 1355.52 680.364 1355.72 680.58C1355.92 680.784 1356.03 681.03 1356.03 681.318C1356.03 681.606 1355.92 681.852 1355.72 682.056C1355.52 682.26 1355.27 682.362 1354.98 682.362ZM1354.19 693V684H1355.76V693H1354.19ZM1362.63 683.766C1363.68 683.766 1364.53 684.102 1365.17 684.774C1365.8 685.434 1366.12 686.334 1366.12 687.474V693H1364.55V687.564C1364.55 686.832 1364.36 686.268 1363.96 685.872C1363.56 685.464 1363.02 685.26 1362.32 685.26C1361.54 685.26 1360.91 685.506 1360.43 685.998C1359.95 686.478 1359.71 687.222 1359.71 688.23V693H1358.15V684H1359.71V685.296C1360.35 684.276 1361.32 683.766 1362.63 683.766ZM1375.78 684H1377.32V692.622C1377.32 693.954 1376.87 694.986 1375.97 695.718C1375.07 696.462 1373.99 696.834 1372.73 696.834C1371.73 696.834 1370.86 696.642 1370.12 696.258C1369.39 695.886 1368.84 695.346 1368.47 694.638L1369.84 693.864C1370.33 694.872 1371.31 695.376 1372.77 695.376C1373.71 695.376 1374.44 695.13 1374.97 694.638C1375.51 694.146 1375.78 693.474 1375.78 692.622V691.344C1374.98 692.544 1373.86 693.144 1372.39 693.144C1371.11 693.144 1370.02 692.688 1369.13 691.776C1368.25 690.864 1367.8 689.754 1367.8 688.446C1367.8 687.138 1368.25 686.034 1369.13 685.134C1370.02 684.222 1371.11 683.766 1372.39 683.766C1373.87 683.766 1375 684.36 1375.78 685.548V684ZM1370.29 690.732C1370.9 691.344 1371.66 691.65 1372.57 691.65C1373.48 691.65 1374.25 691.344 1374.86 690.732C1375.47 690.12 1375.78 689.358 1375.78 688.446C1375.78 687.546 1375.47 686.79 1374.86 686.178C1374.25 685.566 1373.48 685.26 1372.57 685.26C1371.66 685.26 1370.9 685.566 1370.29 686.178C1369.67 686.79 1369.37 687.546 1369.37 688.446C1369.37 689.358 1369.67 690.12 1370.29 690.732ZM1194.63 721.234C1193.71 721.234 1192.91 721.042 1192.21 720.658C1191.52 720.274 1191.01 719.716 1190.68 718.984L1192.11 718.156C1192.48 719.116 1193.32 719.596 1194.63 719.596C1195.43 719.596 1196.06 719.404 1196.52 719.02C1196.97 718.636 1197.2 718.066 1197.2 717.31V708.4H1198.86V717.31C1198.86 718.57 1198.45 719.542 1197.65 720.226C1196.86 720.898 1195.85 721.234 1194.63 721.234ZM1208.73 719.866C1207.81 720.778 1206.69 721.234 1205.37 721.234C1204.05 721.234 1202.93 720.778 1202 719.866C1201.09 718.954 1200.63 717.832 1200.63 716.5C1200.63 715.168 1201.09 714.046 1202 713.134C1202.93 712.222 1204.05 711.766 1205.37 711.766C1206.69 711.766 1207.81 712.222 1208.73 713.134C1209.66 714.046 1210.12 715.168 1210.12 716.5C1210.12 717.832 1209.66 718.954 1208.73 719.866ZM1205.37 719.704C1206.27 719.704 1207.02 719.398 1207.64 718.786C1208.25 718.174 1208.55 717.412 1208.55 716.5C1208.55 715.588 1208.25 714.826 1207.64 714.214C1207.02 713.602 1206.27 713.296 1205.37 713.296C1204.48 713.296 1203.73 713.602 1203.12 714.214C1202.51 714.826 1202.2 715.588 1202.2 716.5C1202.2 717.412 1202.51 718.174 1203.12 718.786C1203.73 719.398 1204.48 719.704 1205.37 719.704ZM1218.18 712H1219.74V721H1218.18V719.704C1217.54 720.724 1216.57 721.234 1215.26 721.234C1214.2 721.234 1213.36 720.904 1212.72 720.244C1212.09 719.572 1211.77 718.666 1211.77 717.526V712H1213.33V717.436C1213.33 718.168 1213.53 718.738 1213.93 719.146C1214.32 719.542 1214.87 719.74 1215.57 719.74C1216.35 719.74 1216.98 719.5 1217.46 719.02C1217.94 718.528 1218.18 717.778 1218.18 716.77V712ZM1223.69 713.512C1224.21 712.396 1225.14 711.838 1226.5 711.838V713.476C1225.73 713.44 1225.07 713.644 1224.52 714.088C1223.97 714.532 1223.69 715.246 1223.69 716.23V721H1222.13V712H1223.69V713.512ZM1232.51 711.766C1233.57 711.766 1234.42 712.102 1235.05 712.774C1235.69 713.434 1236.01 714.334 1236.01 715.474V721H1234.44V715.564C1234.44 714.832 1234.24 714.268 1233.85 713.872C1233.45 713.464 1232.9 713.26 1232.21 713.26C1231.43 713.26 1230.8 713.506 1230.32 713.998C1229.84 714.478 1229.6 715.222 1229.6 716.23V721H1228.03V712H1229.6V713.296C1230.23 712.276 1231.21 711.766 1232.51 711.766ZM1239.29 717.22C1239.45 718.024 1239.81 718.648 1240.39 719.092C1240.98 719.536 1241.7 719.758 1242.55 719.758C1243.74 719.758 1244.6 719.32 1245.14 718.444L1246.47 719.2C1245.6 720.556 1244.28 721.234 1242.51 721.234C1241.08 721.234 1239.92 720.79 1239.02 719.902C1238.13 719.002 1237.69 717.868 1237.69 716.5C1237.69 715.144 1238.13 714.016 1239 713.116C1239.88 712.216 1241.01 711.766 1242.4 711.766C1243.72 711.766 1244.8 712.234 1245.63 713.17C1246.47 714.094 1246.89 715.21 1246.89 716.518C1246.89 716.746 1246.87 716.98 1246.83 717.22H1239.29ZM1242.4 713.242C1241.56 713.242 1240.87 713.482 1240.32 713.962C1239.76 714.43 1239.42 715.06 1239.29 715.852H1245.3C1245.17 715 1244.83 714.352 1244.29 713.908C1243.75 713.464 1243.12 713.242 1242.4 713.242ZM1254.62 712H1256.29L1252.62 721.558C1252.23 722.578 1251.69 723.352 1251 723.88C1250.31 724.42 1249.52 724.66 1248.62 724.6V723.142C1249.73 723.226 1250.54 722.614 1251.05 721.306L1251.21 720.964L1247.29 712H1248.96L1252.02 719.056L1254.62 712ZM1257.99 717.31L1257.65 712V708.4H1259.54V712L1259.2 717.31H1257.99ZM1258.59 721.198C1258.26 721.198 1257.99 721.084 1257.76 720.856C1257.53 720.628 1257.42 720.352 1257.42 720.028C1257.42 719.704 1257.53 719.428 1257.76 719.2C1257.99 718.972 1258.26 718.858 1258.59 718.858C1258.92 718.858 1259.2 718.972 1259.42 719.2C1259.64 719.428 1259.76 719.704 1259.76 720.028C1259.76 720.352 1259.64 720.628 1259.42 720.856C1259.2 721.084 1258.92 721.198 1258.59 721.198Z" fill="white"/>
<path d="M-14 1.57196e-05L-14 180C77.6851 180 152 99.4176 152 0L-14 1.57196e-05Z" fill="url(#paint0_linear_317_26)"/>
<defs>
<linearGradient id="paint0_linear_317_26" x1="69" y1="7.8598e-06" x2="69" y2="180" gradientUnits="userSpaceOnUse">
<stop stop-color="#EEAC1F"/>
<stop offset="0.9999" stop-color="#E97D24"/>
<stop offset="1" stop-color="#EEAC1F" stop-opacity="0"/>
</linearGradient>
</defs>
</svg>
